<svg width="500" height="230" viewBox="0 0 500 230" fill="none" xmlns="http://www.w3.org/2000/svg">
<g clip-path="url(#clip0_2_17)">
<g filter="url(#filter0_d_2_17)">
<path d="M42.12 46C38.84 46 36.28 46.04 34.44 46.12C34.76 53.16 34.96 59.44 35.04 64.96C36.16 64.88 37.92 64.84 40.32 64.84C44.88 64.84 48.64 64.92 51.6 65.08C54.64 65.24 57.32 65.6 59.64 66.16C61.88 66.72 63.52 67.6 64.56 68.8C65.6 70 66.12 71.64 66.12 73.72C66.12 76.04 65.48 77.92 64.2 79.36C63 80.8 61.12 81.4 58.56 81.16C52.16 80.52 46.24 80.2 40.8 80.2C38.16 80.2 36.24 80.24 35.04 80.32C34.96 87.76 34.68 95.48 34.2 103.48L33.96 107.68C33.8 109.84 32.96 111.6 31.44 112.96C30 114.24 27.92 114.88 25.2 114.88C22.4 114.88 20.2 114.2 18.6 112.84C17 111.48 16.28 109.72 16.44 107.56C17.16 98.6 17.56 89.92 17.64 81.52L15 81.88C13.16 82.12 11.64 81.48 10.44 79.96C9.32 78.44 8.76 76.48 8.76 74.08C8.76 71.52 9.4 69.72 10.68 68.68C12.04 67.56 13.92 66.8 16.32 66.4L17.52 66.16C17.44 58.64 17.2 52.08 16.8 46.48H15.84C13.28 46.48 11.4 45.92 10.2 44.8C9 43.68 8.4 41.72 8.4 38.92C8.4 36.28 8.88 34.44 9.84 33.4C10.88 32.28 12.36 31.6 14.28 31.36L15.6 31.24C15.52 31 15.48 30.72 15.48 30.4C15.32 28.4 16.04 26.8 17.64 25.6C19.32 24.4 21.6 23.8 24.48 23.8C29.76 23.8 32.64 25.96 33.12 30.28V30.64H42.84C47.08 30.64 51.36 30.8 55.68 31.12C60.08 31.36 63.28 31.68 65.28 32.08C67.76 32.56 69.52 33.48 70.56 34.84C71.6 36.12 72.12 37.76 72.12 39.76C72.12 42.16 71.48 44.08 70.2 45.52C68.92 46.96 67.16 47.56 64.92 47.32C56.52 46.44 48.92 46 42.12 46ZM129.555 96.04C129.555 98.84 129.795 101.04 130.275 102.64C130.755 104.24 131.275 105.52 131.835 106.48C132.395 107.44 132.675 108 132.675 108.16C132.675 110.16 131.915 111.84 130.395 113.2C128.955 114.48 126.995 115.12 124.515 115.12C122.995 115.12 121.315 114.32 119.475 112.72C117.715 111.04 116.555 109.2 115.995 107.2C113.195 112.56 107.955 115.24 100.275 115.24C93.235 115.24 87.755 112.76 83.835 107.8C79.995 102.84 78.075 96.52 78.075 88.84V60.52C78.075 58.68 78.875 57.2 80.475 56.08C82.155 54.88 84.195 54.28 86.595 54.28C88.995 54.28 91.035 54.88 92.715 56.08C94.475 57.2 95.355 58.68 95.355 60.52V88.6C95.355 92.04 95.955 95.12 97.155 97.84C98.355 100.56 100.195 101.92 102.675 101.92C105.795 101.92 108.075 100.52 109.515 97.72C111.035 94.92 111.795 90 111.795 82.96V60.76C111.795 58.6 112.555 56.88 114.075 55.6C115.675 54.32 117.755 53.68 120.315 53.68C122.955 53.68 125.075 54.32 126.675 55.6C128.355 56.88 129.195 58.6 129.195 60.76L129.555 96.04ZM174.104 52.72C177.304 52.72 180.264 53.48 182.984 55C185.704 56.44 187.864 58.52 189.464 61.24C191.064 63.96 191.864 67.12 191.864 70.72C191.864 75.92 190.144 79.96 186.704 82.84C183.344 85.64 178.984 87.04 173.624 87.04C170.824 87.04 168.864 86.64 167.744 85.84C166.624 84.96 166.064 83.52 166.064 81.52C166.064 79.6 166.464 78.28 167.264 77.56C168.064 76.76 169.184 76.28 170.624 76.12C175.344 75.64 177.704 73.68 177.704 70.24C177.704 68.8 177.344 67.72 176.624 67C175.984 66.2 175.064 65.8 173.864 65.8C171.704 65.8 169.704 67.04 167.864 69.52C166.024 71.92 164.504 74.76 163.304 78.04C162.104 81.24 161.344 83.96 161.024 86.2C160.464 89.72 160.184 95.96 160.184 104.92C160.184 109.24 159.544 112.2 158.264 113.8C157.064 115.32 154.904 116.08 151.784 116.08C148.904 116.08 146.704 115.52 145.184 114.4C143.744 113.28 142.984 111.56 142.904 109.24V103.72V89.8C142.904 84.68 142.784 80.36 142.544 76.84C142.304 73.24 141.904 68.64 141.344 63.04L140.864 58.12C140.704 56.12 141.344 54.48 142.784 53.2C144.304 51.92 146.384 51.28 149.024 51.28C153.504 51.28 155.904 53.28 156.224 57.28C156.384 59.2 156.544 61.92 156.704 65.44C158.304 61.68 160.544 58.64 163.424 56.32C166.384 53.92 169.944 52.72 174.104 52.72ZM228.402 116.2C221.122 116.2 214.962 114.84 209.922 112.12C204.962 109.4 201.242 105.64 198.762 100.84C196.282 96.04 195.042 90.6 195.042 84.52C195.042 78.44 196.442 73.04 199.242 68.32C202.122 63.52 206.002 59.8 210.882 57.16C215.842 54.52 221.362 53.2 227.442 53.2C232.882 53.2 237.842 54.28 242.322 56.44C246.882 58.6 250.442 61.72 253.002 65.8C255.642 69.8 256.962 74.52 256.962 79.96C256.962 83.4 256.322 85.88 255.042 87.4C253.842 88.84 251.762 89.56 248.802 89.56H210.042C210.042 91.48 210.722 93.44 212.082 95.44C213.442 97.36 215.482 99 218.202 100.36C220.922 101.72 224.162 102.4 227.922 102.4C231.282 102.4 233.922 101.92 235.842 100.96C237.762 99.92 239.762 98.4 241.842 96.4C243.362 95.04 244.922 94.36 246.522 94.36C248.362 94.36 250.082 95.08 251.682 96.52C253.282 97.88 254.082 99.44 254.082 101.2C254.082 102.64 253.602 104.04 252.642 105.4C250.962 108.04 248.122 110.52 244.122 112.84C240.122 115.08 234.882 116.2 228.402 116.2ZM241.122 78.76C241.842 78.76 242.282 78.64 242.442 78.4C242.682 78.16 242.802 77.72 242.802 77.08C242.802 73.96 241.282 71.36 238.242 69.28C235.282 67.2 231.602 66.16 227.202 66.16C223.682 66.16 220.602 66.84 217.962 68.2C215.402 69.56 213.442 71.24 212.082 73.24C210.722 75.16 210.042 77 210.042 78.76H241.122ZM287.767 115C283.767 115 280.127 112.92 276.847 108.76C273.567 104.52 270.367 98 267.247 89.2C265.407 84.08 263.807 78.84 262.447 73.48C261.167 68.04 260.527 64.2 260.527 61.96C260.527 59.56 261.327 57.72 262.927 56.44C264.527 55.08 266.607 54.4 269.167 54.4C271.407 54.4 273.327 54.96 274.927 56.08C276.527 57.12 277.487 58.68 277.807 60.76C279.007 68.68 280.447 75.76 282.127 82C283.167 85.92 284.247 89.4 285.367 92.44C286.487 95.48 287.287 97 287.767 97C288.327 97 289.367 95.2 290.887 91.6C292.487 88 293.647 84.68 294.367 81.64C295.887 75.4 296.887 71.12 297.367 68.8C297.847 66.4 298.247 63.6 298.567 60.4C298.807 58.48 299.727 56.92 301.327 55.72C302.927 54.44 304.967 53.8 307.447 53.8C310.007 53.8 312.047 54.48 313.567 55.84C315.167 57.2 315.967 59.16 315.967 61.72C315.967 64.04 315.287 67.76 313.927 72.88C312.647 77.92 310.967 83.24 308.887 88.84C305.527 97.72 302.167 104.32 298.807 108.64C295.447 112.88 291.767 115 287.767 115ZM352.926 116.2C345.646 116.2 339.486 114.84 334.446 112.12C329.486 109.4 325.766 105.64 323.286 100.84C320.806 96.04 319.566 90.6 319.566 84.52C319.566 78.44 320.966 73.04 323.766 68.32C326.646 63.52 330.526 59.8 335.406 57.16C340.366 54.52 345.886 53.2 351.966 53.2C357.406 53.2 362.366 54.28 366.846 56.44C371.406 58.6 374.966 61.72 377.526 65.8C380.166 69.8 381.486 74.52 381.486 79.96C381.486 83.4 380.846 85.88 379.566 87.4C378.366 88.84 376.286 89.56 373.326 89.56H334.566C334.566 91.48 335.246 93.44 336.606 95.44C337.966 97.36 340.006 99 342.726 100.36C345.446 101.72 348.686 102.4 352.446 102.4C355.806 102.4 358.446 101.92 360.366 100.96C362.286 99.92 364.286 98.4 366.366 96.4C367.886 95.04 369.446 94.36 371.046 94.36C372.886 94.36 374.606 95.08 376.206 96.52C377.806 97.88 378.606 99.44 378.606 101.2C378.606 102.64 378.126 104.04 377.166 105.4C375.486 108.04 372.646 110.52 368.646 112.84C364.646 115.08 359.406 116.2 352.926 116.2ZM365.646 78.76C366.366 78.76 366.806 78.64 366.966 78.4C367.206 78.16 367.326 77.72 367.326 77.08C367.326 73.96 365.806 71.36 362.766 69.28C359.806 67.2 356.126 66.16 351.726 66.16C348.206 66.16 345.126 66.84 342.486 68.2C339.926 69.56 337.966 71.24 336.606 73.24C335.246 75.16 334.566 77 334.566 78.76H365.646ZM420.69 52.72C423.89 52.72 426.85 53.48 429.57 55C432.29 56.44 434.45 58.52 436.05 61.24C437.65 63.96 438.45 67.12 438.45 70.72C438.45 75.92 436.73 79.96 433.29 82.84C429.93 85.64 425.57 87.04 420.21 87.04C417.41 87.04 415.45 86.64 414.33 85.84C413.21 84.96 412.65 83.52 412.65 81.52C412.65 79.6 413.05 78.28 413.85 77.56C414.65 76.76 415.77 76.28 417.21 76.12C421.93 75.64 424.29 73.68 424.29 70.24C424.29 68.8 423.93 67.72 423.21 67C422.57 66.2 421.65 65.8 420.45 65.8C418.29 65.8 416.29 67.04 414.45 69.52C412.61 71.92 411.09 74.76 409.89 78.04C408.69 81.24 407.93 83.96 407.61 86.2C407.05 89.72 406.77 95.96 406.77 104.92C406.77 109.24 406.13 112.2 404.85 113.8C403.65 115.32 401.49 116.08 398.37 116.08C395.49 116.08 393.29 115.52 391.77 114.4C390.33 113.28 389.57 111.56 389.49 109.24V103.72V89.8C389.49 84.68 389.37 80.36 389.13 76.84C388.89 73.24 388.49 68.64 387.93 63.04L387.45 58.12C387.29 56.12 387.93 54.48 389.37 53.2C390.89 51.92 392.97 51.28 395.61 51.28C400.09 51.28 402.49 53.28 402.81 57.28C402.97 59.2 403.13 61.92 403.29 65.44C404.89 61.68 407.13 58.64 410.01 56.32C412.97 53.92 416.53 52.72 420.69 52.72Z" fill="#6900FF"/>
</g>
<g filter="url(#filter1_d_2_17)">
<path d="M259.775 156.725C261.155 156.725 262.458 157.377 263.685 158.68C264.912 159.907 265.525 161.785 265.525 164.315C265.525 166.845 264.912 168.723 263.685 169.95C262.458 171.177 261.117 171.79 259.66 171.79H258.74L259.315 193.295C259.392 195.748 258.663 197.703 257.13 199.16C255.673 200.54 253.642 201.23 251.035 201.23C248.505 201.23 246.473 200.578 244.94 199.275C243.407 197.895 242.602 196.055 242.525 193.755L241.835 171.56L212.51 171.1L210.555 195.825C210.248 199.812 207.488 201.805 202.275 201.805C199.362 201.805 197.177 201.23 195.72 200.08C194.263 198.853 193.612 197.052 193.765 194.675L195.605 170.87H194.915C193.075 170.87 191.618 170.218 190.545 168.915C189.548 167.535 189.05 165.657 189.05 163.28C189.05 160.903 189.625 159.102 190.775 157.875C191.925 156.572 193.458 155.92 195.375 155.92H196.87L199.285 124.87C199.438 122.8 200.32 121.113 201.93 119.81C203.54 118.507 205.61 117.855 208.14 117.855C210.823 117.855 212.855 118.622 214.235 120.155C215.615 121.688 216.228 123.682 216.075 126.135L213.66 156.15L241.375 156.495L240.455 125.675C240.378 123.375 241.068 121.497 242.525 120.04C244.058 118.583 246.167 117.855 248.85 117.855C251.38 117.855 253.412 118.583 254.945 120.04C256.478 121.42 257.283 123.145 257.36 125.215L258.28 156.725H259.775Z" fill="#3D0E80"/>
</g>
<g filter="url(#filter2_d_2_17)">
<path d="M392.515 143.155C399.875 143.155 405.203 145.762 408.5 150.975C411.873 156.112 413.56 163.203 413.56 172.25C413.56 176.697 413.522 179.993 413.445 182.14L413.33 194.905C413.33 196.745 412.64 198.24 411.26 199.39C409.88 200.463 408.04 201 405.74 201C403.363 201 401.37 200.425 399.76 199.275C398.227 198.125 397.46 196.515 397.46 194.445V172.25C397.46 166.117 396.923 161.747 395.85 159.14C394.853 156.533 393.205 155.23 390.905 155.23C389.218 155.23 387.723 156.61 386.42 159.37C385.193 162.053 384.542 166.04 384.465 171.33V179.15V194.445C384.465 198.662 381.897 200.77 376.76 200.77C374.077 200.77 372.007 200.233 370.55 199.16C369.093 198.01 368.365 196.4 368.365 194.33L368.48 171.33C368.48 165.963 367.905 162.053 366.755 159.6C365.682 157.07 363.995 155.805 361.695 155.805C360.238 155.805 358.743 156.84 357.21 158.91C355.753 160.903 354.603 163.855 353.76 167.765C353.223 169.988 352.955 172.863 352.955 176.39L353.07 186.855V195.48C353.07 197.167 352.303 198.508 350.77 199.505C349.237 200.425 347.397 200.885 345.25 200.885C343.103 200.885 341.263 200.425 339.73 199.505C338.197 198.508 337.43 197.128 337.43 195.365V160.405C337.43 158.642 337.315 157.338 337.085 156.495C336.855 155.652 336.357 154.847 335.59 154.08C335.513 154.003 335.283 153.773 334.9 153.39C334.517 153.007 334.21 152.623 333.98 152.24C333.827 151.857 333.75 151.435 333.75 150.975C333.75 148.982 334.478 147.372 335.935 146.145C337.468 144.842 339.155 144.19 340.995 144.19C342.528 144.19 344.215 145.34 346.055 147.64C347.358 149.327 348.01 151.013 348.01 152.7V153.39C349.237 150.553 351.038 148.215 353.415 146.375C355.868 144.458 358.935 143.5 362.615 143.5C366.295 143.5 369.17 144.267 371.24 145.8C373.387 147.257 375.035 149.327 376.185 152.01C377.872 149.173 380.095 146.988 382.855 145.455C385.692 143.922 388.912 143.155 392.515 143.155ZM450.124 202.15C443.147 202.15 437.244 200.847 432.414 198.24C427.66 195.633 424.095 192.03 421.719 187.43C419.342 182.83 418.154 177.617 418.154 171.79C418.154 165.963 419.495 160.788 422.179 156.265C424.939 151.665 428.657 148.1 433.334 145.57C438.087 143.04 443.377 141.775 449.204 141.775C454.417 141.775 459.17 142.81 463.464 144.88C467.834 146.95 471.245 149.94 473.699 153.85C476.229 157.683 477.494 162.207 477.494 167.42C477.494 170.717 476.88 173.093 475.654 174.55C474.504 175.93 472.51 176.62 469.674 176.62H432.529C432.529 178.46 433.18 180.338 434.484 182.255C435.787 184.095 437.742 185.667 440.349 186.97C442.955 188.273 446.06 188.925 449.664 188.925C452.884 188.925 455.414 188.465 457.254 187.545C459.094 186.548 461.01 185.092 463.004 183.175C464.46 181.872 465.955 181.22 467.489 181.22C469.252 181.22 470.9 181.91 472.434 183.29C473.967 184.593 474.734 186.088 474.734 187.775C474.734 189.155 474.274 190.497 473.354 191.8C471.744 194.33 469.022 196.707 465.189 198.93C461.355 201.077 456.334 202.15 450.124 202.15ZM462.314 166.27C463.004 166.27 463.425 166.155 463.579 165.925C463.809 165.695 463.924 165.273 463.924 164.66C463.924 161.67 462.467 159.178 459.554 157.185C456.717 155.192 453.19 154.195 448.974 154.195C445.6 154.195 442.649 154.847 440.119 156.15C437.665 157.453 435.787 159.063 434.484 160.98C433.18 162.82 432.529 164.583 432.529 166.27H462.314Z" fill="#3D0E80"/>
</g>
<g filter="url(#filter3_d_2_17)">
<path d="M299.898 145C314.754 145 326.796 157.043 326.796 171.898C326.796 186.754 314.754 198.796 299.898 198.796C285.043 198.796 273 186.754 273 171.898C273 157.043 285.043 145 299.898 145Z" fill="#E1CCFF" stroke="#3D0E80" stroke-width="10"/>
<path d="M316.246 154.49C316.28 154.506 316.342 154.545 316.433 154.635C316.574 154.774 316.743 154.993 316.952 155.318L317.174 155.68C317.973 157.025 319.505 159.963 320.533 161.961C321.172 163.203 321.5 164.58 321.5 165.98V183.83C321.5 184.243 321.38 184.543 321.193 184.772C321 185.01 320.708 185.204 320.323 185.352C319.542 185.651 318.487 185.719 317.47 185.667C317.113 185.649 316.355 185.681 315.459 185.688C314.533 185.694 313.391 185.675 312.172 185.558C309.714 185.321 307.022 184.694 305.143 183.152C303.203 181.561 302.412 180.278 302.018 179.07C301.818 178.456 301.715 177.843 301.628 177.183C301.542 176.532 301.469 175.816 301.326 175.059C301.022 173.449 300.13 172.245 299.261 171.138C298.376 170.008 297.522 168.983 297.078 167.647V167.646L296.758 166.66C296.667 166.363 296.591 166.097 296.534 165.858C296.416 165.367 296.397 165.069 296.432 164.902C296.447 164.832 296.468 164.808 296.474 164.801C296.481 164.794 296.507 164.771 296.584 164.753C296.764 164.71 297.103 164.72 297.69 164.856C297.713 164.862 297.737 164.868 297.76 164.873C301.203 165.689 304.978 164.687 308.128 163.394C311.411 162.046 313.467 158.919 315.067 155.963C315.118 155.868 315.17 155.781 315.222 155.702C315.506 155.277 315.724 154.96 315.914 154.741C316.113 154.512 316.206 154.484 316.219 154.481H316.22C316.222 154.482 316.23 154.483 316.246 154.49Z" fill="#3D0E80" stroke="#3D0E80"/>
<path d="M306.69 178.421C305.883 177.975 305.708 176.871 306.35 176.208C306.759 175.788 307.343 175.406 308.176 175.311C310.252 175.072 312.487 177.147 312.487 177.147C312.487 177.147 309.992 179.027 308.394 178.947C307.752 178.91 307.162 178.682 306.69 178.421Z" fill="#FBB03B"/>
<path d="M309.707 178.172C310.189 177.942 310.223 177.013 309.784 176.098C309.346 175.184 308.6 174.629 308.119 174.86C307.638 175.091 307.603 176.019 308.042 176.934C308.481 177.849 309.226 178.403 309.707 178.172Z" fill="#1A1A1A"/>
<path d="M319.622 170.734C319.569 169.816 318.65 169.179 317.774 169.471C317.217 169.657 316.622 170.023 316.176 170.729C315.062 172.497 315.969 175.411 315.969 175.411C315.969 175.411 318.74 173.973 319.362 172.497C319.606 171.902 319.654 171.276 319.622 170.734Z" fill="#FBB03B"/>
<path d="M307.996 182.875L302.008 186.161L308.484 183.358L305.246 188.211L309.227 183.953L308.484 189.607L310.332 183.836L309.227 182.456L307.996 182.875Z" fill="#1A1A1A"/>
<path d="M318.084 173.282C318.566 173.052 318.6 172.123 318.161 171.208C317.723 170.294 316.977 169.739 316.496 169.97C316.015 170.201 315.98 171.129 316.419 172.044C316.858 172.959 317.603 173.513 318.084 173.282Z" fill="#1A1A1A"/>
</g>
</g>
<defs>
<filter id="filter0_d_2_17" x="6.40002" y="23.8" width="434.05" height="98.4" filterUnits="userSpaceOnUse" color-interpolation-filters="sRGB">
<feFlood flood-opacity="0" result="BackgroundImageFix"/>
<feColorMatrix in="SourceAlpha" type="matrix" values="0 0 0 0 0 0 0 0 0 0 0 0 0 0 0 0 0 0 127 0" result="hardAlpha"/>
<feOffset dy="4"/>
<feGaussianBlur stdDeviation="1"/>
<feComposite in2="hardAlpha" operator="out"/>
<feColorMatrix type="matrix" values="0 0 0 0 0.984314 0 0 0 0 0.690196 0 0 0 0 0.231373 0 0 0 1 0"/>
<feBlend mode="normal" in2="BackgroundImageFix" result="effect1_dropShadow_2_17"/>
<feBlend mode="normal" in="SourceGraphic" in2="effect1_dropShadow_2_17" result="shape"/>
</filter>
<filter id="filter1_d_2_17" x="187.05" y="117.855" width="80.475" height="89.95" filterUnits="userSpaceOnUse" color-interpolation-filters="sRGB">
<feFlood flood-opacity="0" result="BackgroundImageFix"/>
<feColorMatrix in="SourceAlpha" type="matrix" values="0 0 0 0 0 0 0 0 0 0 0 0 0 0 0 0 0 0 127 0" result="hardAlpha"/>
<feOffset dy="4"/>
<feGaussianBlur stdDeviation="1"/>
<feComposite in2="hardAlpha" operator="out"/>
<feColorMatrix type="matrix" values="0 0 0 0 0.984314 0 0 0 0 0.690196 0 0 0 0 0.231373 0 0 0 1 0"/>
<feBlend mode="normal" in2="BackgroundImageFix" result="effect1_dropShadow_2_17"/>
<feBlend mode="normal" in="SourceGraphic" in2="effect1_dropShadow_2_17" result="shape"/>
</filter>
<filter id="filter2_d_2_17" x="331.75" y="141.775" width="147.744" height="66.375" filterUnits="userSpaceOnUse" color-interpolation-filters="sRGB">
<feFlood flood-opacity="0" result="BackgroundImageFix"/>
<feColorMatrix in="SourceAlpha" type="matrix" values="0 0 0 0 0 0 0 0 0 0 0 0 0 0 0 0 0 0 127 0" result="hardAlpha"/>
<feOffset dy="4"/>
<feGaussianBlur stdDeviation="1"/>
<feComposite in2="hardAlpha" operator="out"/>
<feColorMatrix type="matrix" values="0 0 0 0 0.984314 0 0 0 0 0.690196 0 0 0 0 0.231373 0 0 0 1 0"/>
<feBlend mode="normal" in2="BackgroundImageFix" result="effect1_dropShadow_2_17"/>
<feBlend mode="normal" in="SourceGraphic" in2="effect1_dropShadow_2_17" result="shape"/>
</filter>
<filter id="filter3_d_2_17" x="266" y="140" width="67.7963" height="69.7963" filterUnits="userSpaceOnUse" color-interpolation-filters="sRGB">
<feFlood flood-opacity="0" result="BackgroundImageFix"/>
<feColorMatrix in="SourceAlpha" type="matrix" values="0 0 0 0 0 0 0 0 0 0 0 0 0 0 0 0 0 0 127 0" result="hardAlpha"/>
<feOffset dy="4"/>
<feGaussianBlur stdDeviation="1"/>
<feComposite in2="hardAlpha" operator="out"/>
<feColorMatrix type="matrix" values="0 0 0 0 0.984314 0 0 0 0 0.690196 0 0 0 0 0.231373 0 0 0 1 0"/>
<feBlend mode="normal" in2="BackgroundImageFix" result="effect1_dropShadow_2_17"/>
<feBlend mode="normal" in="SourceGraphic" in2="effect1_dropShadow_2_17" result="shape"/>
</filter>
<clipPath id="clip0_2_17">
<rect width="500" height="230" fill="white"/>
</clipPath>
</defs>
</svg>
